<svg width="28" height="31" viewBox="0 0 28 31" fill="none" xmlns="http://www.w3.org/2000/svg">
<path d="M26.5225 17.1227L21.6238 19.8952L17.23 15.529L21.6588 11.1277L26.5225 13.8802C26.8096 14.0425 27.0484 14.2781 27.2145 14.563C27.3807 14.8478 27.4682 15.1717 27.4682 15.5015C27.4682 15.8312 27.3807 16.1551 27.2145 16.4399C27.0484 16.7248 26.8096 16.9604 26.5225 17.1227ZM0.67125 1.65521C0.578921 1.88054 0.531369 2.1217 0.53125 2.36521V28.6365C0.53125 28.9077 0.5875 29.1602 0.68625 29.3865L14.63 15.5277L0.67125 1.65521ZM15.93 14.2365L20.0025 10.189L3.3125 0.743958C2.95463 0.538749 2.53811 0.459936 2.13 0.520208L15.93 14.2365ZM15.93 16.8202L2.18 30.4865C2.5525 30.5315 2.945 30.4665 3.3125 30.2577L19.9675 20.8327L15.93 16.8202Z" fill="black"/>
</svg>
