<svg width="20" height="23" viewBox="0 0 20 23" fill="none" xmlns="http://www.w3.org/2000/svg">
<path d="M16.3125 21.85C15.0875 23.0375 13.75 22.85 12.4625 22.2875C11.1 21.7125 9.84996 21.6875 8.41246 22.2875C6.61246 23.0625 5.66246 22.8375 4.58746 21.85C-1.51254 15.5625 -0.612539 5.9875 6.31246 5.6375C7.99996 5.725 9.17496 6.5625 10.1625 6.6375C11.6375 6.3375 13.05 5.475 14.625 5.5875C16.5125 5.7375 17.9375 6.4875 18.875 7.8375C14.975 10.175 15.9 15.3125 19.475 16.75C18.7625 18.625 17.8375 20.4875 16.3 21.8625L16.3125 21.85ZM10.0375 5.5625C9.84996 2.775 12.1125 0.475 14.7125 0.25C15.075 3.475 11.7875 5.875 10.0375 5.5625Z" fill="black"/>
</svg>
