<svg width="25" height="24" viewBox="0 0 25 24" fill="none" xmlns="http://www.w3.org/2000/svg">
<path d="M15.5993 2.00004V0.196045L9.45031 4.15804C9.88931 4.77304 10.1423 5.47304 10.2583 6.20805C10.5383 7.96105 10.0413 9.91605 9.45031 11.42C7.15931 16.466 7.41031 20.553 9.89531 22.245C10.1063 22.388 10.3453 22.52 10.6133 22.632C11.1493 22.856 11.8043 23 12.5983 23C15.6763 23 17.3123 20.492 16.8453 17.573C16.6573 16.403 16.2153 15.347 15.8133 14.384C15.2113 12.944 14.6973 11.714 15.2553 10.634C15.33 10.4874 15.4 10.344 15.4653 10.204C15.1493 11.833 15.8573 12.826 16.7053 14.018C17.3003 14.851 17.9633 15.781 18.3933 17.094C19.1303 19.343 18.6753 21.524 17.2433 22.889C19.3573 22.986 20.9913 22.447 22.1433 21.391C23.6893 19.973 24.1023 17.859 23.8993 15.943C23.5963 13.071 21.3713 10.461 19.4893 8.78704C17.3693 6.90104 15.5993 5.30204 15.5993 2.00004Z" fill="white"/>
<path d="M8.2252 8.48C7.8412 8.76 7.4502 9.017 7.0352 9.29C6.6702 9.53 6.2852 9.783 5.8682 10.076C4.9082 10.752 3.9162 11.563 3.1712 12.68C2.4142 13.816 1.9502 15.213 1.9502 17.002C1.9502 20.102 3.6812 23 7.5982 23H7.7232C6.5392 21.723 5.9692 20.01 5.8832 18.183C5.7782 15.92 6.3922 13.333 7.6062 10.643C7.8712 9.963 8.0962 9.217 8.2262 8.479" fill="white"/>
</svg>
