<svg width="19" height="21" viewBox="0 0 19 21" fill="none" xmlns="http://www.w3.org/2000/svg">
<path d="M17 18.5H11.268C10.9819 19.0488 10.6189 19.5539 10.19 20H17C17.5304 20 18.0391 19.7893 18.4142 19.4142C18.7893 19.0391 19 18.5304 19 18V7.828C18.9999 7.29761 18.7891 6.78899 18.414 6.414L12.585 0.586L12.536 0.546L12.5 0.516C12.4313 0.450896 12.3582 0.390744 12.281 0.336C12.255 0.320123 12.2283 0.305441 12.201 0.292L12.153 0.268L12.103 0.239C12.049 0.208 11.994 0.176 11.937 0.152C11.7377 0.0728505 11.5271 0.0262557 11.313 0.0139999C11.293 0.0126666 11.2733 0.0103333 11.254 0.00699997L11.172 0H5C4.46957 0 3.96086 0.210714 3.58579 0.585786C3.21071 0.960859 3 1.46957 3 2V9.498C3.48127 9.29769 3.98489 9.15601 4.5 9.076V2C4.5 1.86739 4.55268 1.74021 4.64645 1.64645C4.74021 1.55268 4.86739 1.5 5 1.5H11V6C11 6.53043 11.2107 7.03914 11.5858 7.41421C11.9609 7.78929 12.4696 8 13 8H17.5V18C17.5 18.1326 17.4473 18.2598 17.3536 18.3536C17.2598 18.4473 17.1326 18.5 17 18.5ZM16.378 6.5H13C12.8674 6.5 12.7402 6.44732 12.6464 6.35355C12.5527 6.25979 12.5 6.13261 12.5 6V2.621L16.378 6.5ZM12 15.5C12.0005 16.0051 11.9421 16.5085 11.826 17H14.25C14.7141 17 15.1592 16.8156 15.4874 16.4874C15.8156 16.1592 16 15.7141 16 15.25V11.25C16 10.7859 15.8156 10.3408 15.4874 10.0126C15.1592 9.68437 14.7141 9.5 14.25 9.5H8.004C8.97289 9.9047 9.82931 10.5381 10.5 11.346V11H14.25C14.3163 11 14.3799 11.0263 14.4268 11.0732C14.4737 11.1201 14.5 11.1837 14.5 11.25V12.5H11.268C11.512 12.97 11.701 13.472 11.826 14H14.5V15.25C14.5 15.3163 14.4737 15.3799 14.4268 15.4268C14.3799 15.4737 14.3163 15.5 14.25 15.5H12ZM11 15.5C11 16.2223 10.8577 16.9375 10.5813 17.6048C10.3049 18.2721 9.89981 18.8784 9.38909 19.3891C8.87837 19.8998 8.27205 20.3049 7.60476 20.5813C6.93747 20.8577 6.22227 21 5.5 21C4.77773 21 4.06253 20.8577 3.39524 20.5813C2.72795 20.3049 2.12163 19.8998 1.61091 19.3891C1.10019 18.8784 0.695063 18.2721 0.418663 17.6048C0.142262 16.9375 -1.07627e-08 16.2223 0 15.5C2.17362e-08 14.0413 0.579463 12.6424 1.61091 11.6109C2.64236 10.5795 4.04131 10 5.5 10C6.95869 10 8.35764 10.5795 9.38909 11.6109C10.4205 12.6424 11 14.0413 11 15.5ZM8.854 13.146C8.80755 13.0994 8.75238 13.0625 8.69163 13.0373C8.63089 13.0121 8.56577 12.9991 8.5 12.9991C8.43423 12.9991 8.36911 13.0121 8.30837 13.0373C8.24762 13.0625 8.19245 13.0994 8.146 13.146L4.5 16.793L2.854 15.146C2.76011 15.0521 2.63278 14.9994 2.5 14.9994C2.36722 14.9994 2.23989 15.0521 2.146 15.146C2.05211 15.2399 1.99937 15.3672 1.99937 15.5C1.99937 15.6328 2.05211 15.7601 2.146 15.854L4.146 17.854C4.19245 17.9006 4.24762 17.9375 4.30837 17.9627C4.36911 17.9879 4.43423 18.0009 4.5 18.0009C4.56577 18.0009 4.63089 17.9879 4.69163 17.9627C4.75238 17.9375 4.80755 17.9006 4.854 17.854L8.854 13.854C8.90056 13.8076 8.93751 13.7524 8.96271 13.6916C8.98792 13.6309 9.00089 13.5658 9.00089 13.5C9.00089 13.4342 8.98792 13.3691 8.96271 13.3084C8.93751 13.2476 8.90056 13.1924 8.854 13.146Z" fill="white"/>
</svg>
