<svg width="20" height="20" viewBox="0 0 20 20" fill="none" xmlns="http://www.w3.org/2000/svg">
<path d="M10 2C9.20435 2 8.44129 2.31607 7.87868 2.87868C7.31607 3.44129 7 4.20435 7 5C7 6.237 7.782 7.498 8.738 8.544C9.194 9.042 9.652 9.452 10 9.739C10.4469 9.36926 10.8685 8.97004 11.262 8.544C12.218 7.498 13 6.238 13 5C13 4.20435 12.6839 3.44129 12.1213 2.87868C11.5587 2.31607 10.7956 2 10 2ZM10 12.214L9.433 11.824L9.431 11.822L9.427 11.82L9.415 11.811L9.374 11.781L9.23 11.677C8.52115 11.1434 7.86243 10.5462 7.262 9.893C6.218 8.751 5 7.013 5 5C5 3.67392 5.52678 2.40215 6.46447 1.46447C7.40215 0.526784 8.67392 0 10 0C11.3261 0 12.5979 0.526784 13.5355 1.46447C14.4732 2.40215 15 3.67392 15 5C15 7.012 13.782 8.752 12.738 9.893C12.0969 10.5897 11.3896 11.2223 10.626 11.782L10.586 11.811L10.573 11.82L10.569 11.822L10.568 11.823L10 12.214ZM10 5.25C10.0663 5.25 10.1299 5.22366 10.1768 5.17678C10.2237 5.12989 10.25 5.0663 10.25 5C10.25 4.9337 10.2237 4.87011 10.1768 4.82322C10.1299 4.77634 10.0663 4.75 10 4.75C9.9337 4.75 9.87011 4.77634 9.82322 4.82322C9.77634 4.87011 9.75 4.9337 9.75 5C9.75 5.0663 9.77634 5.12989 9.82322 5.17678C9.87011 5.22366 9.9337 5.25 10 5.25ZM8.25 5C8.25 4.53587 8.43437 4.09075 8.76256 3.76256C9.09075 3.43437 9.53587 3.25 10 3.25C10.4641 3.25 10.9092 3.43437 11.2374 3.76256C11.5656 4.09075 11.75 4.53587 11.75 5C11.75 5.46413 11.5656 5.90925 11.2374 6.23744C10.9092 6.56563 10.4641 6.75 10 6.75C9.53587 6.75 9.09075 6.56563 8.76256 6.23744C8.43437 5.90925 8.25 5.46413 8.25 5ZM0 8H5V10H2V16.43L6.439 11.587L7.913 12.939L3.273 18H12.296L9.589 14.906L11.094 13.589L11.982 14.604L16.586 10H15V8H20V20H0V8ZM18 11.414L13.302 16.112L14.954 18H18V11.414Z" fill="white"/>
</svg>
